<svg width="141" height="24" viewBox="0 0 141 24" fill="none" xmlns="http://www.w3.org/2000/svg">
<path d="M11.4406 0H26.3217L15.3811 16.2162H0.5L11.4406 0Z" fill="#0085FF"/>
<path d="M12.0923 17.7191L7.85472 24H23.4417L34.3823 7.78383H22.8782L16.1751 17.7191H12.0923Z" fill="#0085FF"/>
<path d="M42.5094 1.63273H46.3417L53.005 17.9024H53.2502L59.9134 1.63273H63.7458V22.5626H60.7412V7.41704H60.547L54.3744 22.5319H51.8808L45.7081 7.40682H45.514V22.5626H42.5094V1.63273Z" fill="black"/>
<path d="M72.6599 22.91C71.6652 22.91 70.7658 22.7261 69.9619 22.3582C69.158 21.9834 68.5209 21.4418 68.0508 20.7332C67.5875 20.0247 67.3559 19.156 67.3559 18.1272C67.3559 17.2415 67.5262 16.5125 67.8669 15.9402C68.2075 15.3679 68.6674 14.9149 69.2465 14.581C69.8256 14.2472 70.4729 13.9951 71.1882 13.8248C71.9036 13.6544 72.6326 13.525 73.3753 13.4364C74.3155 13.3274 75.0785 13.2388 75.6645 13.1707C76.2504 13.0958 76.6762 12.9765 76.9419 12.813C77.2076 12.6495 77.3405 12.3838 77.3405 12.0159V11.9443C77.3405 11.0518 77.0884 10.3603 76.5842 9.86976C76.0869 9.37922 75.3442 9.13394 74.3563 9.13394C73.3276 9.13394 72.5168 9.36218 71.9241 9.81866C71.3381 10.2683 70.9328 10.7691 70.7079 11.3209L67.8362 10.6669C68.1769 9.71306 68.6742 8.94318 69.3283 8.35725C69.9891 7.76451 70.7488 7.33529 71.6073 7.06958C72.4657 6.79705 73.3684 6.66079 74.3155 6.66079C74.9423 6.66079 75.6065 6.73574 76.3083 6.88562C77.0169 7.0287 77.6777 7.29441 78.2909 7.68275C78.9109 8.0711 79.4185 8.62637 79.8136 9.34856C80.2088 10.0639 80.4064 10.9939 80.4064 12.1385V22.5626H77.4222V20.4164H77.2996C77.102 20.8116 76.8056 21.1999 76.4105 21.5815C76.0153 21.963 75.5078 22.2798 74.8878 22.5319C74.2678 22.784 73.5251 22.91 72.6599 22.91ZM73.3242 20.4573C74.169 20.4573 74.8912 20.2904 75.4907 19.9565C76.0971 19.6227 76.557 19.1867 76.8704 18.6484C77.1906 18.1034 77.3507 17.5209 77.3507 16.9009V14.8774C77.2417 14.9864 77.0305 15.0886 76.7171 15.184C76.4105 15.2725 76.0596 15.3509 75.6645 15.419C75.2693 15.4803 74.8844 15.5383 74.5096 15.5928C74.1349 15.6405 73.8215 15.6813 73.5694 15.7154C72.9767 15.7903 72.4351 15.9164 71.9445 16.0935C71.4608 16.2707 71.0724 16.5262 70.7795 16.86C70.4933 17.187 70.3502 17.6231 70.3502 18.1681C70.3502 18.9244 70.6296 19.4967 71.1882 19.885C71.7469 20.2665 72.4589 20.4573 73.3242 20.4573Z" fill="black"/>
<path d="M84.4763 22.5626V6.86518H87.4094V9.42009H87.6036C87.9306 8.55483 88.4654 7.88034 89.208 7.39661C89.9507 6.90606 90.8398 6.66079 91.8754 6.66079C92.9246 6.66079 93.8035 6.90606 94.512 7.39661C95.2274 7.88715 95.7554 8.56164 96.0961 9.42009H96.2596C96.6343 8.58208 97.2305 7.9144 98.048 7.41704C98.8656 6.91288 99.8399 6.66079 100.971 6.66079C102.395 6.66079 103.556 7.10705 104.456 7.99956C105.362 8.89208 105.815 10.2377 105.815 12.0363V22.5626H102.759V12.3225C102.759 11.2596 102.47 10.4898 101.891 10.0128C101.312 9.53592 100.62 9.29746 99.816 9.29746C98.8213 9.29746 98.048 9.60405 97.4962 10.2172C96.9443 10.8236 96.6684 11.6037 96.6684 12.5575V22.5626H93.6229V12.1283C93.6229 11.2767 93.3572 10.5919 92.8258 10.0742C92.2944 9.55636 91.6028 9.29746 90.7512 9.29746C90.1721 9.29746 89.6373 9.45075 89.1467 9.75734C88.663 10.0571 88.2712 10.4761 87.9715 11.0144C87.6785 11.5526 87.532 12.176 87.532 12.8846V22.5626H84.4763Z" fill="black"/>
<path d="M110.156 22.5626V1.63273H113.211V9.40988H113.395C113.573 9.08285 113.828 8.70472 114.162 8.27549C114.496 7.84627 114.959 7.47155 115.552 7.15133C116.144 6.82431 116.928 6.66079 117.902 6.66079C119.169 6.66079 120.3 6.98101 121.295 7.62144C122.29 8.26187 123.07 9.18504 123.635 10.391C124.208 11.5969 124.494 13.0481 124.494 14.7445C124.494 16.441 124.211 17.8956 123.646 19.1083C123.08 20.3142 122.304 21.2442 121.316 21.8983C120.328 22.5455 119.2 22.8691 117.933 22.8691C116.979 22.8691 116.199 22.709 115.593 22.3888C114.993 22.0686 114.523 21.6939 114.182 21.2647C113.842 20.8354 113.579 20.4539 113.395 20.1201H113.14V22.5626H110.156ZM113.15 14.7139C113.15 15.8176 113.31 16.7851 113.63 17.6162C113.951 18.4474 114.414 19.0981 115.02 19.5682C115.627 20.0315 116.369 20.2631 117.248 20.2631C118.161 20.2631 118.924 20.0213 119.537 19.5375C120.151 19.047 120.614 18.3827 120.927 17.5447C121.247 16.7067 121.408 15.7631 121.408 14.7139C121.408 13.6783 121.251 12.7483 120.937 11.9239C120.631 11.0995 120.168 10.4489 119.548 9.97196C118.934 9.49504 118.168 9.25658 117.248 9.25658C116.362 9.25658 115.613 9.48482 115 9.9413C114.393 10.3978 113.934 11.0348 113.62 11.8524C113.307 12.6699 113.15 13.6238 113.15 14.7139Z" fill="black"/>
<path d="M132.493 22.91C131.499 22.91 130.599 22.7261 129.795 22.3582C128.991 21.9834 128.354 21.4418 127.884 20.7332C127.421 20.0247 127.189 19.156 127.189 18.1272C127.189 17.2415 127.36 16.5125 127.7 15.9402C128.041 15.3679 128.501 14.9149 129.08 14.581C129.659 14.2472 130.306 13.9951 131.022 13.8248C131.737 13.6544 132.466 13.525 133.209 13.4364C134.149 13.3274 134.912 13.2388 135.498 13.1707C136.084 13.0958 136.51 12.9765 136.775 12.813C137.041 12.6495 137.174 12.3838 137.174 12.0159V11.9443C137.174 11.0518 136.922 10.3603 136.418 9.86976C135.92 9.37922 135.178 9.13394 134.19 9.13394C133.161 9.13394 132.35 9.36218 131.758 9.81866C131.172 10.2683 130.766 10.7691 130.541 11.3209L127.67 10.6669C128.01 9.71306 128.508 8.94318 129.162 8.35725C129.823 7.76451 130.582 7.33529 131.441 7.06958C132.299 6.79705 133.202 6.66079 134.149 6.66079C134.776 6.66079 135.44 6.73574 136.142 6.88562C136.85 7.0287 137.511 7.29441 138.124 7.68275C138.744 8.0711 139.252 8.62637 139.647 9.34856C140.042 10.0639 140.24 10.9939 140.24 12.1385V22.5626H137.256V20.4164H137.133C136.935 20.8116 136.639 21.1999 136.244 21.5815C135.849 21.963 135.341 22.2798 134.721 22.5319C134.101 22.784 133.359 22.91 132.493 22.91ZM133.158 20.4573C134.002 20.4573 134.725 20.2904 135.324 19.9565C135.931 19.6227 136.39 19.1867 136.704 18.6484C137.024 18.1034 137.184 17.5209 137.184 16.9009V14.8774C137.075 14.9864 136.864 15.0886 136.551 15.184C136.244 15.2725 135.893 15.3509 135.498 15.419C135.103 15.4803 134.718 15.5383 134.343 15.5928C133.968 15.6405 133.655 15.6813 133.403 15.7154C132.81 15.7903 132.269 15.9164 131.778 16.0935C131.294 16.2707 130.906 16.5262 130.613 16.86C130.327 17.187 130.184 17.6231 130.184 18.1681C130.184 18.9244 130.463 19.4967 131.022 19.885C131.58 20.2665 132.292 20.4573 133.158 20.4573Z" fill="black"/>
</svg>
