<svg width="366" height="31" viewBox="0 0 366 31" fill="none" xmlns="http://www.w3.org/2000/svg">
<path d="M32.8286 10.701H45.2721V13.0175H40.3726V26.076H37.6871V13.0175H32.8081L32.8286 10.701ZM44.7391 14.9445H47.0351V17.097H47.0761C47.1581 16.7895 47.3016 16.5025 47.5066 16.2155C47.7116 15.9285 47.9576 15.662 48.2651 15.4365C48.5521 15.1905 48.8801 15.006 49.2491 14.8625C49.5976 14.719 49.9666 14.637 50.3356 14.637C50.6226 14.637 50.8276 14.6575 50.9301 14.6575C51.0326 14.678 51.1556 14.6985 51.2581 14.6985V17.056C51.0941 17.015 50.9096 16.9945 50.7251 16.974C50.5406 16.9535 50.3766 16.933 50.1921 16.933C49.7821 16.933 49.3926 17.015 49.0236 17.179C48.6546 17.343 48.3471 17.589 48.0601 17.8965C47.7936 18.2245 47.5681 18.614 47.4041 19.0855C47.2401 19.557 47.1581 20.1105 47.1581 20.7255V26.0145H44.6981L44.7391 14.9445ZM62.5331 26.076H60.1141V24.518H60.0731C59.7656 25.092 59.3146 25.5225 58.7201 25.871C58.1256 26.2195 57.5106 26.3835 56.8956 26.3835C55.4401 26.3835 54.3741 26.035 53.7181 25.297C53.0621 24.5795 52.7341 23.4725 52.7341 22.017V14.9445H55.1941V21.771C55.1941 22.755 55.3786 23.452 55.7681 23.8415C56.1371 24.2515 56.6701 24.4565 57.3466 24.4565C57.8591 24.4565 58.2896 24.3745 58.6381 24.2105C58.9866 24.0465 59.2736 23.8415 59.4786 23.575C59.7041 23.3085 59.8476 22.9805 59.9501 22.6115C60.0526 22.2425 60.0936 21.8325 60.0936 21.402V14.9445H62.5536V26.076H62.5331ZM66.7151 22.509C66.7971 23.2265 67.0636 23.7185 67.5351 24.026C68.0066 24.313 68.5806 24.4565 69.2366 24.4565C69.4621 24.4565 69.7286 24.436 70.0156 24.395C70.3026 24.354 70.5896 24.2925 70.8356 24.19C71.1021 24.0875 71.3071 23.944 71.4711 23.739C71.6351 23.534 71.7171 23.288 71.6966 22.9805C71.6761 22.673 71.5736 22.4065 71.3481 22.2015C71.1226 21.9965 70.8561 21.853 70.5281 21.7095C70.2001 21.5865 69.8106 21.484 69.3801 21.402C68.9496 21.32 68.5191 21.2175 68.0681 21.115C67.6171 21.0125 67.1661 20.8895 66.7356 20.746C66.3051 20.6025 65.9361 20.418 65.5876 20.1515C65.2596 19.9055 64.9726 19.598 64.7881 19.2085C64.5831 18.819 64.4806 18.368 64.4806 17.794C64.4806 17.179 64.6241 16.687 64.9316 16.277C65.2186 15.867 65.6081 15.539 66.0591 15.293C66.5101 15.047 67.0226 14.8625 67.5761 14.76C68.1296 14.6575 68.6626 14.6165 69.1546 14.6165C69.7286 14.6165 70.2821 14.678 70.7946 14.801C71.3071 14.924 71.7991 15.1085 72.2091 15.3955C72.6396 15.662 72.9881 16.031 73.2546 16.4615C73.5416 16.892 73.7056 17.425 73.7876 18.04H71.2251C71.1021 17.4455 70.8356 17.056 70.4256 16.851C69.9951 16.646 69.5236 16.5435 68.9701 16.5435C68.8061 16.5435 68.5806 16.564 68.3551 16.5845C68.1091 16.6255 67.9041 16.6665 67.6786 16.7485C67.4736 16.8305 67.2891 16.9535 67.1456 17.097C67.0021 17.2405 66.9201 17.4455 66.9201 17.6915C66.9201 17.999 67.0226 18.2245 67.2276 18.409C67.4326 18.5935 67.6991 18.737 68.0476 18.8805C68.3756 19.0035 68.7651 19.106 69.1956 19.188C69.6261 19.27 70.0771 19.3725 70.5281 19.475C70.9791 19.5775 71.4096 19.7005 71.8401 19.844C72.2706 19.9875 72.6601 20.172 72.9881 20.4385C73.3161 20.6845 73.6031 20.992 73.8081 21.361C74.0131 21.73 74.1156 22.2015 74.1156 22.7345C74.1156 23.3905 73.9721 23.944 73.6646 24.4155C73.3571 24.8665 72.9676 25.256 72.4961 25.543C72.0246 25.83 71.4711 26.035 70.8971 26.1785C70.3026 26.3015 69.7286 26.3835 69.1546 26.3835C68.4576 26.3835 67.8016 26.3015 67.2071 26.1375C66.6126 25.9735 66.0796 25.7275 65.6491 25.42C65.2186 25.092 64.8701 24.7025 64.6241 24.2105C64.3781 23.739 64.2346 23.165 64.2141 22.4885H66.6946V22.509H66.7151ZM74.8126 14.9445H76.6781V11.5825H79.1381V14.924H81.3521V16.7485H79.1381V22.6935C79.1381 22.96 79.1586 23.165 79.1791 23.37C79.1996 23.5545 79.2611 23.7185 79.3226 23.8415C79.4046 23.9645 79.5276 24.067 79.6711 24.1285C79.8351 24.19 80.0401 24.231 80.3271 24.231C80.4911 24.231 80.6756 24.231 80.8396 24.2105C81.0036 24.19 81.1881 24.1695 81.3521 24.1285V26.035C81.0856 26.076 80.8191 26.0965 80.5526 26.117C80.2861 26.158 80.0401 26.158 79.7531 26.158C79.0971 26.158 78.5846 26.0965 78.1951 25.9735C77.8056 25.8505 77.4981 25.666 77.2726 25.4405C77.0471 25.1945 76.9036 24.9075 76.8216 24.559C76.7396 24.2105 76.6986 23.78 76.6781 23.329V16.769H74.8126V14.9035V14.9445ZM83.0741 14.9445H85.3906V16.4615H85.4316C85.7801 15.8055 86.2516 15.3545 86.8666 15.0675C87.4816 14.7805 88.1376 14.637 88.8756 14.637C89.7571 14.637 90.5156 14.7805 91.1716 15.1085C91.8276 15.416 92.3606 15.826 92.7911 16.3795C93.2216 16.9125 93.5496 17.548 93.7546 18.2655C93.9596 18.983 94.0826 19.762 94.0826 20.5615C94.0826 21.32 93.9801 22.0375 93.7956 22.7345C93.5906 23.4315 93.3036 24.067 92.9141 24.6C92.5246 25.133 92.0326 25.5635 91.4176 25.8915C90.8026 26.2195 90.1056 26.3835 89.2856 26.3835C88.9371 26.3835 88.5681 26.3425 88.2196 26.281C87.8711 26.2195 87.5226 26.117 87.1946 25.9735C86.8666 25.83 86.5591 25.6455 86.2926 25.42C86.0056 25.1945 85.7801 24.928 85.5956 24.641H85.5546V30.1965H83.0946V14.9445H83.0741ZM91.6636 20.5205C91.6636 20.0285 91.6021 19.5365 91.4586 19.065C91.3356 18.5935 91.1306 18.1835 90.8641 17.8145C90.5976 17.4455 90.2696 17.1585 89.9006 16.933C89.5111 16.7075 89.0601 16.605 88.5681 16.605C87.5431 16.605 86.7641 16.9535 86.2311 17.671C85.7186 18.3885 85.4521 19.352 85.4521 20.541C85.4521 21.115 85.5136 21.6275 85.6571 22.099C85.8006 22.5705 85.9851 22.9805 86.2721 23.329C86.5386 23.6775 86.8666 23.944 87.2561 24.149C87.6456 24.354 88.0761 24.4565 88.5886 24.4565C89.1626 24.4565 89.6136 24.3335 90.0031 24.108C90.3926 23.8825 90.7001 23.575 90.9666 23.2265C91.2126 22.8575 91.3971 22.4475 91.4996 21.976C91.6021 21.484 91.6636 21.0125 91.6636 20.5205ZM95.9891 10.701H98.4491V13.0175H95.9891V10.701ZM95.9891 14.9445H98.4491V26.076H95.9891V14.9445ZM100.643 10.701H103.103V26.076H100.643V10.701ZM110.606 26.3835C109.724 26.3835 108.925 26.24 108.228 25.9325C107.531 25.625 106.957 25.2355 106.465 24.723C105.993 24.2105 105.624 23.575 105.378 22.8575C105.132 22.14 104.989 21.3405 104.989 20.5C104.989 19.6595 105.112 18.8805 105.378 18.163C105.624 17.4455 105.993 16.8305 106.465 16.2975C106.936 15.785 107.531 15.375 108.228 15.088C108.925 14.801 109.724 14.637 110.606 14.637C111.487 14.637 112.287 14.7805 112.984 15.088C113.681 15.375 114.255 15.785 114.747 16.2975C115.218 16.81 115.587 17.4455 115.833 18.163C116.079 18.8805 116.223 19.6595 116.223 20.5C116.223 21.361 116.1 22.14 115.833 22.8575C115.567 23.575 115.218 24.19 114.747 24.723C114.275 25.2355 113.681 25.6455 112.984 25.9325C112.287 26.2195 111.508 26.3835 110.606 26.3835ZM110.606 24.436C111.139 24.436 111.631 24.313 112.02 24.0875C112.43 23.862 112.738 23.5545 113.004 23.1855C113.271 22.8165 113.455 22.386 113.578 21.935C113.701 21.4635 113.763 20.992 113.763 20.5C113.763 20.0285 113.701 19.557 113.578 19.0855C113.455 18.614 113.271 18.204 113.004 17.835C112.738 17.466 112.41 17.179 112.02 16.9535C111.61 16.728 111.139 16.605 110.606 16.605C110.073 16.605 109.581 16.728 109.191 16.9535C108.781 17.179 108.474 17.4865 108.207 17.835C107.941 18.204 107.756 18.614 107.633 19.0855C107.51 19.557 107.449 20.0285 107.449 20.5C107.449 20.992 107.51 21.4635 107.633 21.935C107.756 22.4065 107.941 22.8165 108.207 23.1855C108.474 23.5545 108.802 23.862 109.191 24.0875C109.601 24.3335 110.073 24.436 110.606 24.436ZM116.961 14.9445H118.826V11.5825H121.286V14.924H123.5V16.7485H121.286V22.6935C121.286 22.96 121.307 23.165 121.327 23.37C121.348 23.5545 121.409 23.7185 121.471 23.8415C121.553 23.9645 121.676 24.067 121.819 24.1285C121.983 24.19 122.188 24.231 122.475 24.231C122.639 24.231 122.824 24.231 122.988 24.2105C123.152 24.19 123.336 24.1695 123.5 24.1285V26.035C123.234 26.076 122.967 26.0965 122.701 26.117C122.434 26.158 122.188 26.158 121.901 26.158C121.245 26.158 120.733 26.0965 120.343 25.9735C119.954 25.8505 119.646 25.666 119.421 25.4405C119.195 25.1945 119.052 24.9075 118.97 24.559C118.888 24.2105 118.847 23.78 118.826 23.329V16.769H116.961V14.9035V14.9445Z" fill="black"/>
<path d="M29.9585 10.701H18.704L15.2395 0L11.7545 10.701L0.5 10.6805L9.60199 17.302L6.117 28.003L15.219 21.3815L24.321 28.003L20.8565 17.302L29.9585 10.701Z" fill="#00B67A"/>
<path d="M21.6357 19.721L20.8567 17.302L15.2397 21.3815L21.6357 19.721Z" fill="#005128"/>
<path d="M146.458 8.19848C146.779 7.20976 148.178 7.20976 148.499 8.19848L149.647 11.7311C149.791 12.1733 150.203 12.4727 150.668 12.4727H154.382C155.422 12.4727 155.854 13.803 155.013 14.4141L152.008 16.5974C151.632 16.8707 151.475 17.355 151.618 17.7972L152.766 21.3299C153.087 22.3186 151.956 23.1408 151.115 22.5297L148.11 20.3464C147.733 20.0731 147.224 20.0731 146.848 20.3464L143.843 22.5297C143.002 23.1408 141.87 22.3186 142.192 21.3299L143.339 17.7972C143.483 17.355 143.326 16.8707 142.949 16.5974L139.944 14.4141C139.103 13.803 139.536 12.4727 140.575 12.4727H144.29C144.755 12.4727 145.167 12.1733 145.31 11.7311L146.458 8.19848Z" fill="#F59E0B"/>
<path d="M166.416 8.19848C166.737 7.20976 168.136 7.20976 168.457 8.19848L169.605 11.7311C169.748 12.1733 170.161 12.4727 170.625 12.4727H174.34C175.38 12.4727 175.812 13.803 174.971 14.4141L171.966 16.5974C171.59 16.8707 171.432 17.355 171.576 17.7972L172.724 21.3299C173.045 22.3186 171.913 23.1408 171.072 22.5297L168.067 20.3464C167.691 20.0731 167.182 20.0731 166.806 20.3464L163.8 22.5297C162.959 23.1408 161.828 22.3186 162.149 21.3299L163.297 17.7972C163.441 17.355 163.283 16.8707 162.907 16.5974L159.902 14.4141C159.061 13.803 159.493 12.4727 160.533 12.4727H164.247C164.712 12.4727 165.124 12.1733 165.268 11.7311L166.416 8.19848Z" fill="#F59E0B"/>
<path d="M186.373 8.19848C186.694 7.20976 188.093 7.20976 188.414 8.19848L189.562 11.7311C189.706 12.1733 190.118 12.4727 190.583 12.4727H194.297C195.337 12.4727 195.769 13.803 194.928 14.4141L191.923 16.5974C191.547 16.8707 191.39 17.355 191.533 17.7972L192.681 21.3299C193.002 22.3186 191.871 23.1408 191.03 22.5297L188.025 20.3464C187.649 20.0731 187.139 20.0731 186.763 20.3464L183.758 22.5297C182.917 23.1408 181.785 22.3186 182.107 21.3299L183.254 17.7972C183.398 17.355 183.241 16.8707 182.865 16.5974L179.859 14.4141C179.018 13.803 179.451 12.4727 180.49 12.4727H184.205C184.67 12.4727 185.082 12.1733 185.225 11.7311L186.373 8.19848Z" fill="#F59E0B"/>
<path d="M206.331 8.19848C206.652 7.20976 208.051 7.20976 208.372 8.19848L209.52 11.7311C209.664 12.1733 210.076 12.4727 210.54 12.4727H214.255C215.295 12.4727 215.727 13.803 214.886 14.4141L211.881 16.5974C211.505 16.8707 211.347 17.355 211.491 17.7972L212.639 21.3299C212.96 22.3186 211.828 23.1408 210.987 22.5297L207.982 20.3464C207.606 20.0731 207.097 20.0731 206.721 20.3464L203.716 22.5297C202.874 23.1408 201.743 22.3186 202.064 21.3299L203.212 17.7972C203.356 17.355 203.198 16.8707 202.822 16.5974L199.817 14.4141C198.976 13.803 199.408 12.4727 200.448 12.4727H204.162C204.627 12.4727 205.039 12.1733 205.183 11.7311L206.331 8.19848Z" fill="#F59E0B"/>
<path d="M226.288 8.19848C226.609 7.20976 228.008 7.20976 228.33 8.19848L229.477 11.7311C229.621 12.1733 230.033 12.4727 230.498 12.4727H234.212C235.252 12.4727 235.684 13.803 234.843 14.4141L231.838 16.5974C231.462 16.8707 231.305 17.355 231.448 17.7972L232.596 21.3299C232.917 22.3186 231.786 23.1408 230.945 22.5297L227.94 20.3464C227.564 20.0731 227.054 20.0731 226.678 20.3464L223.673 22.5297C222.832 23.1408 221.7 22.3186 222.022 21.3299L223.169 17.7972C223.313 17.355 223.156 16.8707 222.78 16.5974L219.775 14.4141C218.933 13.803 219.366 12.4727 220.405 12.4727H224.12C224.585 12.4727 224.997 12.1733 225.14 11.7311L226.288 8.19848Z" fill="#F59E0B"/>
<path d="M252.219 18.7119V17.5528L257.333 9.46188H258.174V11.2573H257.606L253.742 17.371V17.4619H260.629V18.7119H252.219ZM257.697 21.0982V18.3596V17.8198V9.46188H259.038V21.0982H257.697ZM266.462 9.30279C266.94 9.30658 267.417 9.39749 267.894 9.57552C268.371 9.75355 268.807 10.049 269.201 10.4619C269.595 10.871 269.911 11.4297 270.15 12.138C270.388 12.8463 270.508 13.7346 270.508 14.8028C270.508 15.8369 270.409 16.7554 270.212 17.5585C270.019 18.3577 269.739 19.032 269.371 19.5812C269.008 20.1304 268.565 20.5471 268.042 20.8312C267.523 21.1153 266.936 21.2573 266.28 21.2573C265.629 21.2573 265.048 21.1285 264.536 20.871C264.029 20.6096 263.612 20.2479 263.286 19.7857C262.964 19.3198 262.758 18.7801 262.667 18.1664H264.053C264.178 18.7005 264.426 19.1418 264.798 19.4903C265.173 19.835 265.667 20.0073 266.28 20.0073C267.178 20.0073 267.887 19.6153 268.405 18.8312C268.928 18.0471 269.19 16.9392 269.19 15.5073H269.099C268.887 15.8255 268.635 16.1001 268.343 16.3312C268.051 16.5623 267.727 16.7403 267.371 16.8653C267.015 16.9903 266.637 17.0528 266.235 17.0528C265.568 17.0528 264.957 16.888 264.4 16.5585C263.847 16.2251 263.404 15.7687 263.07 15.1892C262.741 14.6058 262.576 13.9392 262.576 13.1892C262.576 12.477 262.735 11.8255 263.053 11.2346C263.375 10.6399 263.826 10.1664 264.405 9.81415C264.989 9.46188 265.674 9.29143 266.462 9.30279ZM266.462 10.5528C265.985 10.5528 265.555 10.6721 265.173 10.9107C264.794 11.1456 264.493 11.4638 264.269 11.8653C264.049 12.263 263.94 12.7043 263.94 13.1892C263.94 13.674 264.046 14.1153 264.258 14.513C264.474 14.907 264.767 15.2213 265.138 15.4562C265.513 15.6873 265.94 15.8028 266.417 15.8028C266.777 15.8028 267.112 15.7327 267.423 15.5926C267.733 15.4486 268.004 15.2535 268.235 15.0073C268.47 14.7573 268.654 14.4751 268.786 14.1607C268.919 13.8426 268.985 13.5111 268.985 13.1664C268.985 12.7119 268.875 12.2857 268.655 11.888C268.44 11.4903 268.14 11.1683 267.758 10.9221C267.379 10.6759 266.947 10.5528 266.462 10.5528ZM276.538 21.2573C275.682 21.2573 274.952 21.0244 274.35 20.5585C273.748 20.0888 273.288 19.4088 272.969 18.5187C272.651 17.6248 272.492 16.5452 272.492 15.2801C272.492 14.0225 272.651 12.9486 272.969 12.0585C273.291 11.1645 273.754 10.4827 274.356 10.013C274.962 9.53953 275.689 9.30279 276.538 9.30279C277.386 9.30279 278.111 9.53953 278.714 10.013C279.32 10.4827 279.782 11.1645 280.1 12.0585C280.422 12.9486 280.583 14.0225 280.583 15.2801C280.583 16.5452 280.424 17.6248 280.106 18.5187C279.788 19.4088 279.327 20.0888 278.725 20.5585C278.123 21.0244 277.394 21.2573 276.538 21.2573ZM276.538 20.0073C277.386 20.0073 278.045 19.5982 278.515 18.7801C278.985 17.9619 279.219 16.7952 279.219 15.2801C279.219 14.2725 279.111 13.4145 278.896 12.7062C278.683 11.9979 278.377 11.4581 277.975 11.0869C277.577 10.7157 277.098 10.5301 276.538 10.5301C275.697 10.5301 275.039 10.9448 274.566 11.7744C274.093 12.6001 273.856 13.7687 273.856 15.2801C273.856 16.2876 273.962 17.1437 274.174 17.8482C274.386 18.5528 274.691 19.0888 275.089 19.4562C275.49 19.8236 275.973 20.0073 276.538 20.0073ZM286.538 21.2573C285.682 21.2573 284.952 21.0244 284.35 20.5585C283.748 20.0888 283.288 19.4088 282.969 18.5187C282.651 17.6248 282.492 16.5452 282.492 15.2801C282.492 14.0225 282.651 12.9486 282.969 12.0585C283.291 11.1645 283.754 10.4827 284.356 10.013C284.962 9.53953 285.689 9.30279 286.538 9.30279C287.386 9.30279 288.111 9.53953 288.714 10.013C289.32 10.4827 289.782 11.1645 290.1 12.0585C290.422 12.9486 290.583 14.0225 290.583 15.2801C290.583 16.5452 290.424 17.6248 290.106 18.5187C289.788 19.4088 289.327 20.0888 288.725 20.5585C288.123 21.0244 287.394 21.2573 286.538 21.2573ZM286.538 20.0073C287.386 20.0073 288.045 19.5982 288.515 18.7801C288.985 17.9619 289.219 16.7952 289.219 15.2801C289.219 14.2725 289.111 13.4145 288.896 12.7062C288.683 11.9979 288.377 11.4581 287.975 11.0869C287.577 10.7157 287.098 10.5301 286.538 10.5301C285.697 10.5301 285.039 10.9448 284.566 11.7744C284.093 12.6001 283.856 13.7687 283.856 15.2801C283.856 16.2876 283.962 17.1437 284.174 17.8482C284.386 18.5528 284.691 19.0888 285.089 19.4562C285.49 19.8236 285.973 20.0073 286.538 20.0073ZM296.174 19.0528V11.5528H297.447V19.0528H296.174ZM293.06 15.9392V14.6664H300.56V15.9392H293.06ZM315.925 21.2573C315.259 21.2573 314.658 21.1248 314.124 20.8596C313.59 20.5945 313.162 20.2308 312.84 19.7687C312.518 19.3066 312.342 18.7801 312.312 18.1892H313.675C313.728 18.7157 313.967 19.1513 314.391 19.496C314.819 19.8369 315.331 20.0073 315.925 20.0073C316.403 20.0073 316.827 19.8956 317.198 19.6721C317.573 19.4486 317.867 19.1418 318.079 18.7517C318.295 18.3577 318.403 17.9126 318.403 17.4164C318.403 16.9088 318.291 16.4562 318.067 16.0585C317.848 15.657 317.545 15.3407 317.158 15.1096C316.772 14.8785 316.331 14.7611 315.834 14.7573C315.478 14.7535 315.113 14.8085 314.738 14.9221C314.363 15.032 314.054 15.174 313.812 15.3482L312.494 15.1892L313.198 9.46188H319.244V10.7119H314.38L313.971 14.1437H314.039C314.278 13.9543 314.577 13.7971 314.937 13.6721C315.297 13.5471 315.672 13.4846 316.062 13.4846C316.774 13.4846 317.408 13.6551 317.965 13.996C318.526 14.3331 318.965 14.7952 319.283 15.3823C319.605 15.9695 319.766 16.6399 319.766 17.3937C319.766 18.1361 319.6 18.799 319.266 19.3823C318.937 19.9619 318.482 20.4202 317.903 20.7573C317.323 21.0907 316.664 21.2573 315.925 21.2573ZM333.092 12.371C333.023 11.7952 332.747 11.3482 332.262 11.0301C331.777 10.7119 331.182 10.5528 330.478 10.5528C329.963 10.5528 329.512 10.6361 329.126 10.8028C328.743 10.9695 328.444 11.1986 328.228 11.4903C328.016 11.782 327.91 12.1134 327.91 12.4846C327.91 12.7952 327.984 13.0623 328.131 13.2857C328.283 13.5054 328.476 13.6892 328.711 13.8369C328.946 13.9808 329.192 14.1001 329.45 14.1948C329.707 14.2857 329.944 14.3596 330.16 14.4164L331.342 14.7346C331.645 14.8142 331.982 14.924 332.353 15.0642C332.728 15.2043 333.086 15.3956 333.427 15.638C333.771 15.8767 334.056 16.1835 334.279 16.5585C334.503 16.9335 334.614 17.3937 334.614 17.9392C334.614 18.5679 334.45 19.1361 334.12 19.6437C333.794 20.1513 333.317 20.5547 332.688 20.8539C332.063 21.1532 331.304 21.3028 330.41 21.3028C329.576 21.3028 328.855 21.1683 328.245 20.8994C327.639 20.6304 327.162 20.2554 326.813 19.7744C326.468 19.2933 326.273 18.7346 326.228 18.0982H327.682C327.72 18.5376 327.868 18.9013 328.126 19.1892C328.387 19.4732 328.717 19.6854 329.114 19.8255C329.516 19.9619 329.948 20.0301 330.41 20.0301C330.948 20.0301 331.431 19.9429 331.859 19.7687C332.287 19.5907 332.626 19.3445 332.876 19.0301C333.126 18.7119 333.251 18.3407 333.251 17.9164C333.251 17.5301 333.143 17.2157 332.927 16.9732C332.711 16.7308 332.427 16.5338 332.075 16.3823C331.722 16.2308 331.342 16.0982 330.932 15.9846L329.501 15.5755C328.592 15.3142 327.872 14.941 327.342 14.4562C326.811 13.9713 326.546 13.3369 326.546 12.5528C326.546 11.9013 326.722 11.3331 327.075 10.8482C327.431 10.3596 327.908 9.98082 328.506 9.71188C329.109 9.43915 329.781 9.30279 330.523 9.30279C331.273 9.30279 331.94 9.43726 332.523 9.7062C333.107 9.97135 333.569 10.335 333.91 10.7971C334.254 11.2592 334.436 11.7838 334.455 12.371H333.092ZM340.545 12.371V13.5073H336.022V12.371H340.545ZM337.34 10.2801H338.681V18.5982C338.681 18.977 338.736 19.2611 338.846 19.4505C338.959 19.6361 339.103 19.7611 339.278 19.8255C339.456 19.8861 339.643 19.9164 339.84 19.9164C339.988 19.9164 340.109 19.9088 340.204 19.8937C340.298 19.8748 340.374 19.8596 340.431 19.8482L340.704 21.0528C340.613 21.0869 340.486 21.121 340.323 21.1551C340.16 21.1929 339.954 21.2119 339.704 21.2119C339.325 21.2119 338.954 21.1304 338.59 20.9676C338.23 20.8047 337.931 20.5566 337.692 20.2232C337.458 19.8899 337.34 19.4695 337.34 18.9619V10.2801ZM345.13 21.3028C344.577 21.3028 344.075 21.1986 343.624 20.9903C343.173 20.7782 342.816 20.4732 342.55 20.0755C342.285 19.674 342.153 19.1892 342.153 18.621C342.153 18.121 342.251 17.7157 342.448 17.4051C342.645 17.0907 342.908 16.8445 343.238 16.6664C343.567 16.4884 343.931 16.3558 344.329 16.2687C344.73 16.1778 345.134 16.1058 345.539 16.0528C346.069 15.9846 346.499 15.9335 346.829 15.8994C347.162 15.8615 347.405 15.799 347.556 15.7119C347.711 15.6248 347.789 15.4732 347.789 15.2573V15.2119C347.789 14.6513 347.636 14.2157 347.329 13.9051C347.026 13.5945 346.566 13.4392 345.948 13.4392C345.308 13.4392 344.806 13.5793 344.442 13.8596C344.079 14.1399 343.823 14.4392 343.675 14.7573L342.403 14.3028C342.63 13.7725 342.933 13.3596 343.312 13.0642C343.694 12.7649 344.111 12.5566 344.562 12.4392C345.016 12.3179 345.463 12.2573 345.903 12.2573C346.183 12.2573 346.505 12.2914 346.869 12.3596C347.236 12.424 347.59 12.5585 347.931 12.763C348.276 12.9676 348.562 13.2763 348.789 13.6892C349.016 14.102 349.13 14.6551 349.13 15.3482V21.0982H347.789V19.9164H347.721C347.63 20.1058 347.478 20.3085 347.266 20.5244C347.054 20.7403 346.772 20.924 346.42 21.0755C346.067 21.227 345.638 21.3028 345.13 21.3028ZM345.334 20.0982C345.865 20.0982 346.312 19.9941 346.675 19.7857C347.043 19.5774 347.319 19.3085 347.505 18.9789C347.694 18.6494 347.789 18.3028 347.789 17.9392V16.7119C347.732 16.7801 347.607 16.8426 347.414 16.8994C347.225 16.9524 347.005 16.9998 346.755 17.0414C346.509 17.0793 346.268 17.1134 346.033 17.1437C345.802 17.1702 345.615 17.1929 345.471 17.2119C345.122 17.2573 344.797 17.3312 344.494 17.4335C344.194 17.532 343.952 17.6816 343.766 17.8823C343.584 18.0793 343.494 18.3482 343.494 18.6892C343.494 19.1551 343.666 19.5073 344.011 19.746C344.359 19.9808 344.8 20.0982 345.334 20.0982ZM351.577 21.0982V12.371H352.873V13.6892H352.964C353.123 13.2573 353.411 12.907 353.827 12.638C354.244 12.3691 354.714 12.2346 355.236 12.2346C355.335 12.2346 355.458 12.2365 355.606 12.2403C355.754 12.2441 355.865 12.2498 355.941 12.2573V13.621C355.896 13.6096 355.791 13.5926 355.629 13.5698C355.469 13.5433 355.301 13.5301 355.123 13.5301C354.699 13.5301 354.32 13.6191 353.986 13.7971C353.657 13.9713 353.396 14.2138 353.202 14.5244C353.013 14.8312 352.918 15.1816 352.918 15.5755V21.0982H351.577ZM363.712 14.3255L362.508 14.6664C362.432 14.4657 362.32 14.2706 362.173 14.0812C362.029 13.888 361.832 13.7289 361.582 13.6039C361.332 13.4789 361.012 13.4164 360.621 13.4164C360.087 13.4164 359.642 13.5395 359.286 13.7857C358.934 14.0282 358.758 14.3369 358.758 14.7119C358.758 15.0452 358.879 15.3085 359.121 15.5017C359.364 15.6948 359.743 15.8558 360.258 15.9846L361.553 16.3028C362.334 16.4922 362.915 16.782 363.298 17.1721C363.68 17.5585 363.871 18.0566 363.871 18.6664C363.871 19.1664 363.727 19.6134 363.44 20.0073C363.155 20.4013 362.758 20.7119 362.246 20.9392C361.735 21.1664 361.14 21.2801 360.462 21.2801C359.572 21.2801 358.835 21.0869 358.252 20.7005C357.669 20.3142 357.299 19.7498 357.144 19.0073L358.417 18.6892C358.538 19.1588 358.767 19.5111 359.104 19.746C359.445 19.9808 359.89 20.0982 360.44 20.0982C361.065 20.0982 361.561 19.9657 361.928 19.7005C362.299 19.4316 362.485 19.1096 362.485 18.7346C362.485 18.4316 362.379 18.1778 362.167 17.9732C361.955 17.7649 361.629 17.6096 361.19 17.5073L359.735 17.1664C358.936 16.977 358.349 16.6835 357.974 16.2857C357.602 15.8842 357.417 15.3823 357.417 14.7801C357.417 14.2876 357.555 13.852 357.832 13.4732C358.112 13.0945 358.493 12.7971 358.974 12.5812C359.459 12.3653 360.008 12.2573 360.621 12.2573C361.485 12.2573 362.163 12.4467 362.655 12.8255C363.152 13.2043 363.504 13.7043 363.712 14.3255Z" fill="black"/>
</svg>
